<svg viewBox="0 0 8 8" fill="none" xmlns="http://www.w3.org/2000/svg">
	<path
		d="M5.2769 3.99561L7.73471 1.5351C7.90606 1.36356 8 1.13621 8 0.895434C8 0.654654 7.90606 0.427307 7.73471 0.255764C7.39303 -0.0852548 6.79948 -0.0852548 6.45781 0.255764L4 2.7173L1.54116 0.255764C1.19948 -0.0852548 0.605935 -0.0852548 0.264258 0.255764C0.0939355 0.427307 0 0.654654 0 0.895434C0 1.13621 0.0939355 1.36356 0.264258 1.5351L2.72206 3.99561L0.264258 6.45611C0.0939355 6.62766 0 6.855 0 7.09578C0 7.33656 0.0939355 7.56391 0.264258 7.73545C0.605935 8.07647 1.19948 8.07647 1.54116 7.73545L4 5.27391L6.45781 7.73545C6.62916 7.90596 6.85523 8 7.09677 8C7.33832 8 7.56439 7.90596 7.73471 7.73545C7.90606 7.56391 8 7.33656 8 7.09578C8 6.855 7.90606 6.62766 7.73471 6.45611L5.2769 3.99561Z"
		fill="#EBEDF3" />
</svg>
