<svg width="16" height="16" viewBox="0 0 16 16" fill="none" xmlns="http://www.w3.org/2000/svg">
	<path
		d="M14.7082 7.52409C14.9894 7.74148 14.9894 8.25942 14.7084 8.4768C14.0755 8.96638 13.598 9.52472 13.3172 10.2022C13.0363 10.8797 12.9789 11.612 13.0801 12.4055C13.1252 12.7585 12.7583 13.1253 12.4056 13.0802C11.6117 12.9788 10.8792 13.0362 10.2016 13.3169C9.52393 13.5977 8.96556 14.0752 8.47611 14.7082C8.25862 14.9894 7.74068 14.9893 7.5234 14.7084C7.03386 14.0754 6.47553 13.5978 5.79794 13.317C5.12031 13.0361 4.38781 12.9788 3.59396 13.0803C3.24119 13.1253 2.87478 12.7587 2.91989 12.4062C3.02151 11.6122 2.96443 10.8795 2.68369 10.2016C2.40294 9.5237 1.92523 8.96518 1.29187 8.47562C1.01052 8.25814 1.01065 7.74033 1.29142 7.5232C1.92467 7.03347 2.40243 6.47506 2.68331 5.79748C2.96423 5.11983 3.02151 4.38744 2.92003 3.59381C2.87492 3.24095 3.2415 2.87456 3.59392 2.91962C4.38807 3.02118 5.12079 2.96401 5.79856 2.68327C6.47634 2.40253 7.03468 1.92491 7.52409 1.29185C7.74149 1.01064 8.25943 1.01061 8.4768 1.29161C8.96643 1.92453 9.52484 2.40207 10.2024 2.68289C10.88 2.96373 11.6124 3.02116 12.406 2.91983C12.759 2.87476 13.1254 3.24152 13.0804 3.59391C12.9788 4.38806 13.036 5.12079 13.3167 5.79855C13.5975 6.47633 14.0751 7.03468 14.7082 7.52409Z"
		stroke="white" stroke-width="1.5" />
</svg>
