<svg xmlns="http://www.w3.org/2000/svg"  viewBox="0 0 50 50" width="24px" height="24px"><path d="M26.75 10.66l12.59 12.59c-1.42 1.42-3.31 2.26-5.31 2.37-1.76.1-3.42.84-4.67 2.09l-14.2 14.2c-.68.68-1.58 1.03-2.48 1.03-.89 0-1.79-.35-2.47-1.03l-2.12-2.12c-1.556-1.556-1.179-3.771 0-4.95l14.2-14.2c1.25-1.25 1.99-2.91 2.09-4.67C24.49 13.97 25.33 12.08 26.75 10.66zM22.561 29.561l3.039-3.039c.586-.585.586-1.535 0-2.121s-1.535-.586-2.121 0l-3.039 3.039c-.586.585-.586 1.535 0 2.121C20.732 29.854 21.116 30 21.5 30S22.268 29.854 22.561 29.561zM41.96 15.69c.66.66 1.03 1.54 1.03 2.47 0 .94-.37 1.82-1.03 2.48l-1.2 1.2-12.6-12.6 1.2-1.2c1.32-1.32 3.63-1.32 4.95 0L41.96 15.69z"/></svg>
