<svg xmlns="http://www.w3.org/2000/svg"  viewBox="0 0 512 512" width="24px" height="24px"><path d="M 386.85352 21.03125 A 5 5 0 0 0 382 26.029297 L 382 69.029297 A 5 5 0 0 0 387 74.029297 A 5 5 0 0 0 392 69.029297 L 392 26.029297 A 5 5 0 0 0 386.85352 21.03125 z M 457.25586 49.568359 A 5.0003056 5.0003056 0 0 0 453.93945 51.027344 L 422.60547 82.359375 A 5 5 0 0 0 426.14062 90.894531 L 426.14062 90.900391 A 4.984 4.984 0 0 0 429.67578 89.435547 L 461.00977 58.099609 A 5.0003056 5.0003056 0 0 0 457.25586 49.568359 z M 305.86523 66.271484 L 270.04688 110.60156 L 401.8457 242.40039 L 446.17383 206.58008 L 305.86523 66.271484 z M 380.94141 98.355469 A 32.929 32.929 0 0 0 360.00586 106.26562 L 406.4375 152.69922 A 32.981 32.981 0 0 0 404.70508 108 A 32.929 32.929 0 0 0 380.94141 98.355469 z M 440.01562 118 A 5 5 0 0 0 440.01562 128 L 485.01562 128 A 5 5 0 0 0 485.01562 118 L 440.01562 118 z M 263.72656 118.42383 L 246.24023 140.0625 L 372.38281 266.20703 L 394.02344 248.7207 L 263.72656 118.42383 z M 241.82422 149.78906 L 235.51562 167.33203 A 307.079 307.079 0 0 1 164.14453 279.84766 L 54.808594 389.18359 L 123.77148 458.14648 L 233.10742 348.80859 A 307.084 307.084 0 0 1 345.62109 277.4375 L 363.16602 271.13086 L 241.82422 149.78906 z M 247.22852 173.34766 A 5 5 0 0 1 249.04883 173.66992 L 249.04492 173.66992 A 5 5 0 0 1 251.96484 180.11133 C 251.05584 182.52733 250.09814 184.97753 249.11914 187.39453 A 5 5 0 0 1 239.84961 183.64258 C 240.79661 181.30058 241.72452 178.92789 242.60352 176.58789 A 5 5 0 0 1 247.22852 173.34766 z M 237.85352 195.36719 A 5.0001374 5.0001374 0 0 1 242.55664 202.47656 L 242.55469 202.47656 A 324.041 324.041 0 0 1 198.77734 271.80078 A 5 5 0 0 1 191.06641 265.43359 A 313.992 313.992 0 0 0 233.49414 198.25 A 5.0001374 5.0001374 0 0 1 237.85352 195.36719 z M 202.67773 292.28125 A 18.017081 18.017081 0 0 1 215.1543 323.03516 L 185.18945 353 A 5 5 0 0 1 178.11914 353 L 159.71094 334.58984 A 5 5 0 0 1 159.71094 327.51953 L 189.67383 297.55664 A 18.017081 18.017081 0 0 1 202.67773 292.28125 z M 202.71484 302.34375 A 8.018 8.018 0 0 0 196.74414 304.62305 L 170.31641 331.05078 L 181.6543 342.38867 L 208.08203 315.96094 A 8.018 8.018 0 0 0 202.71484 302.34375 z M 47.736328 396.25586 L 36.242188 407.74805 A 48.764205 48.764205 0 0 0 105.20703 476.71094 L 116.69922 465.21875 L 47.736328 396.25586 z"/></svg>
