<svg viewBox="0 0 24 24" fill="none" xmlns="http://www.w3.org/2000/svg">
<path d="M10.9332 20.6965L10.9317 20.6952C7.82162 17.875 5.32134 15.6053 3.58655 13.4844C1.86324 11.3775 1 9.53952 1 7.6C1 4.45628 3.45628 2 6.6 2C8.38521 2 10.1142 2.83594 11.2386 4.15634L12 5.0504L12.7614 4.15634C13.8858 2.83594 15.6148 2 17.4 2C20.5437 2 23 4.45628 23 7.6C23 9.53953 22.1368 11.3775 20.4132 13.4861C18.6784 15.6086 16.1784 17.8809 13.0686 20.7069C13.0682 20.7073 13.0678 20.7076 13.0675 20.7079L12.0026 21.67L10.9332 20.6965Z" stroke="currentColor" stroke-width="2"/>
</svg>
