<svg xmlns="http://www.w3.org/2000/svg"  viewBox="0 0 72 72" baseProfile="basic"><path d="M35.997,22.925l22,18.377V50c0,4.418-3.582,8-8,8h-28c-4.418,0-8-3.582-8-8v-8.698L35.997,22.925z M42,50V40	c0-1.105-0.895-2-2-2h-8c-1.105,0-2,0.895-2,2v10H42z"/><path d="M58,28.667L50,22v-5.333C50,15.194,51.194,14,52.667,14h2.667C56.806,14,58,15.194,58,16.667V28.667z"/><path d="M60.419,28.888c1.693,1.415,2.085,3.962,0.708,5.686c-0.793,0.993-1.956,1.505-3.129,1.505	c-0.905,0-1.814-0.305-2.562-0.931L36.641,19.445c-0.371-0.31-0.911-0.31-1.282,0L16.564,35.148	c-1.903,1.592-4.853,1.11-6.104-1.199c-0.909-1.679-0.408-3.784,1.057-5.008l21.277-17.778c1.856-1.551,4.556-1.551,6.412,0	L60.419,28.888z"/></svg>
