<svg width="32" height="32" viewBox="0 0 32 32" fill="none" xmlns="http://www.w3.org/2000/svg">
	<path fill-rule="evenodd" clip-rule="evenodd"
		d="M21.7367 3.6665H10.2007C6.18468 3.6665 3.66602 6.51184 3.66602 10.5385V21.3998C3.66602 25.4265 6.17402 28.2718 10.2007 28.2718H21.73C25.7633 28.2718 28.27 25.4265 28.27 21.3998V10.5385C28.2753 6.51184 25.7673 3.6665 21.7367 3.6665Z"
		stroke="#777D8C" stroke-width="1.5" stroke-linecap="round" stroke-linejoin="round" />
	<path fill-rule="evenodd" clip-rule="evenodd"
		d="M14.2703 11.7135C14.2703 13.0735 13.169 14.1749 11.809 14.1749C10.4503 14.1749 9.34766 13.0735 9.34766 11.7135C9.34766 10.3535 10.4503 9.2522 11.809 9.2522C13.1677 9.25353 14.269 10.3549 14.2703 11.7135Z"
		stroke="#777D8C" stroke-width="1.5" stroke-linecap="round" stroke-linejoin="round" />
	<path
		d="M28.276 19.9347C27.0453 18.668 24.6787 16.1094 22.1053 16.1094C19.5307 16.1094 18.0467 21.7534 15.5707 21.7534C13.0947 21.7534 10.8453 19.2014 8.86133 20.8374C6.87733 22.472 5 25.8147 5 25.8147"
		stroke="#777D8C" stroke-width="1.5" stroke-linecap="round" stroke-linejoin="round" />
</svg>
