<svg id="Layer_1" data-name="Layer 1" xmlns="http://www.w3.org/2000/svg" viewBox="0 0 596 140"><defs><style>.cls-1{fill:#fff;}</style></defs><path class="cls-1" d="M204.45,48.22c6.22,0,11.22,1.77,15.11,5.22h.22V27.67h15.89v81.08H220.89v-5.22h-.22c-3.22,4-9.44,6.89-16.22,6.89-15.21,0-26.32-13.22-26.32-31.1S189.24,48.22,204.45,48.22ZM219.78,75.1a11.9,11.9,0,0,0-12.33-12.33c-8.55,0-13.44,6-13.44,16.55,0,10.33,5,16.55,13.44,16.55a12,12,0,0,0,12.33-12.33Z"/><path class="cls-1" d="M305.78,108.75H288.12L273.46,81.43h-10v27.32H247V31h31.66c16.44,0,26.55,9.55,26.55,25.1,0,11.44-5.56,19.77-15.22,23.44v.11Zm-29.1-42.32c7.89,0,12.11-3.66,12.11-10.44s-4-10-12.11-10H263.46V66.43Z"/><path class="cls-1" d="M336.63,48.22c16.33,0,27.66,12.55,27.66,31.1V84H324.86c.44,8.33,4.88,13.11,12.1,13.11,5.78,0,10.11-2.67,14.22-8.78l11.22,8.78c-5.66,8.88-14.22,13.33-25.44,13.33-16.55,0-28.1-12.55-28.1-31.1C308.86,61,320.41,48.22,336.63,48.22Zm.11,13.32c-6.55,0-11.33,4.45-11.88,11.22h24C348.29,65.65,344,61.54,336.74,61.54Z"/><path class="cls-1" d="M425.28,49.88v58.87H410V105h-.22c-3.22,3.45-8.22,5.45-14,5.45-15.55,0-26.77-12.89-26.77-31.1s11.22-31.1,26.77-31.1c5.77,0,10.77,2,14,5.44H410V49.88ZM409.4,74.54c0-7.11-4.78-11.77-11.77-11.77-8,0-12.78,6.22-12.78,16.55s4.78,16.55,12.66,16.55c7.11,0,11.89-4.67,11.89-11.78Z"/><path class="cls-1" d="M459,48.22c6.22,0,11.22,1.77,15.11,5.22h.22V27.67h15.88v81.08H475.45v-5.22h-.22c-3.22,4-9.44,6.89-16.22,6.89-15.22,0-26.32-13.22-26.32-31.1S443.79,48.22,459,48.22ZM474.34,75.1A11.9,11.9,0,0,0,462,62.77c-8.55,0-13.44,6-13.44,16.55,0,10.33,5,16.55,13.44,16.55a12,12,0,0,0,12.33-12.33Z"/><path class="cls-1" d="M525.36,48.22c16.33,0,27.66,12.55,27.66,31.1V84H513.59c.44,8.33,4.88,13.11,12.1,13.11,5.78,0,10.11-2.67,14.22-8.78l11.22,8.78c-5.67,8.88-14.22,13.33-25.44,13.33-16.55,0-28.1-12.55-28.1-31.1C497.59,61,509.14,48.22,525.36,48.22Zm.11,13.32c-6.55,0-11.33,4.45-11.88,11.22h24C537,65.65,532.69,61.54,525.47,61.54Z"/><path class="cls-1" d="M560.44,49.88h14.88V55.1h.23c2.66-4,7-6.33,12.66-6.33a27.63,27.63,0,0,1,7.66,1l-2.66,15.11a27.81,27.81,0,0,0-6.56-.89c-6.77,0-10.33,4.55-10.33,13.1v31.66H560.44Z"/><path class="cls-1" d="M61.71,80H51a4.22,4.22,0,0,0,0,8.44H61.71a4.22,4.22,0,1,0,0-8.44Z"/><path class="cls-1" d="M91.64,80H80.88a4.22,4.22,0,0,0,0,8.44H91.64a4.22,4.22,0,0,0,0-8.44Z"/><path class="cls-1" d="M120.57,0H31.05A31,31,0,0,0,0,31.05V109A31,31,0,0,0,31.05,140h89.52a31,31,0,0,0,31.05-31V31.05A31,31,0,0,0,120.57,0Zm-2.43,88.61a23.55,23.55,0,0,1-23.49,23.9H57.36a23.91,23.91,0,0,1-4.58-47.37V38.52a11,11,0,0,1,22.06,0V64.7H94.65c.49,0,1,0,1.46,0V38.52a11,11,0,1,1,22,0S118.14,87.13,118.14,88.61Z"/></svg>
