<svg width="33" height="31" viewBox="0 0 33 31" fill="none" xmlns="http://www.w3.org/2000/svg">
	<path
		d="M26.1331 0H6.73147C3.01378 0 0 3.02606 0 6.7589V23.7112C0 27.444 3.01378 30.4701 6.73147 30.4701H26.1331C29.8508 30.4701 32.8645 27.444 32.8645 23.7112V6.7589C32.8645 3.02606 29.8508 0 26.1331 0Z"
		fill="#1CD681" />
	<path
		d="M28.4946 15.2329C24.2233 13.2158 23.424 11.2828 25.0247 6.81929C20.5836 8.4265 18.6563 7.62397 16.6453 3.33521C14.6364 7.62397 12.7112 8.4265 8.26584 6.81929C9.86653 11.2785 9.0694 13.2115 4.7959 15.2329C9.0694 17.25 9.86653 19.1851 8.26584 23.6464C12.7091 22.0392 14.6342 22.8418 16.6453 27.1305C18.6542 22.8418 20.5814 22.0392 25.0247 23.6464C23.424 19.1872 24.2233 17.2521 28.4946 15.2329ZM14.8534 16.5273C14.8534 16.8662 14.7194 17.1912 14.4809 17.4311C14.2425 17.6709 13.9189 17.806 13.5814 17.8066C13.2439 17.806 12.9203 17.6709 12.6819 17.4311C12.4434 17.1912 12.3095 16.8662 12.3095 16.5273V12.2385C12.3095 11.8996 12.4434 11.5745 12.6819 11.3347C12.9203 11.0948 13.2439 10.9598 13.5814 10.9592C13.9189 10.9598 14.2425 11.0948 14.4809 11.3347C14.7194 11.5745 14.8534 11.8996 14.8534 12.2385V16.5273ZM20.9875 16.5273C20.9875 16.8662 20.8536 17.1912 20.6151 17.4311C20.3766 17.6709 20.0531 17.806 19.7156 17.8066C19.378 17.806 19.0545 17.6709 18.816 17.4311C18.5776 17.1912 18.4436 16.8662 18.4436 16.5273V12.2385C18.4436 11.8996 18.5776 11.5745 18.816 11.3347C19.0545 11.0948 19.378 10.9598 19.7156 10.9592C20.0531 10.9598 20.3766 11.0948 20.6151 11.3347C20.8536 11.5745 20.9875 11.8996 20.9875 12.2385V16.5273Z"
		fill="black" />
</svg>
