<?xml version="1.0" standalone="no"?>
<!DOCTYPE svg PUBLIC "-//W3C//DTD SVG 20010904//EN"
 "http://www.w3.org/TR/2001/REC-SVG-20010904/DTD/svg10.dtd">
<svg version="1.0" xmlns="http://www.w3.org/2000/svg"
 width="18.000000pt" height="18.000000pt" viewBox="0 0 350.000000 50.000000">

<g transform="translate(-25.000000,172.000000) scale(0.1000,-0.100000)"
 stroke="none">
<path d="M567 2304 c-64 -20 -129 -85 -151 -151 -15 -45 -16 -124 -14 -809 l3
-759 28 -47 c34 -58 84 -94 152 -109 105 -23 223 40 277 149 23 47 23 49 26
490 3 402 5 442 20 442 9 0 120 -103 247 -228 248 -246 257 -252 361 -252 100
1 106 6 369 355 132 176 245 320 250 320 14 0 285 -317 285 -333 0 -8 -73
-113 -163 -235 -288 -391 -296 -405 -297 -495 0 -55 23 -113 57 -144 10 -10
41 -28 68 -40 l50 -23 625 0 625 0 48 24 c90 44 142 157 117 253 -15 55 -89
128 -146 146 -29 8 -144 12 -396 12 -272 0 -358 3 -366 13 -7 9 27 55 129 175
76 90 148 185 161 210 28 59 29 139 1 202 -11 25 -82 117 -157 205 -75 87
-135 166 -134 175 3 13 52 16 383 20 424 6 409 3 478 79 79 88 75 213 -9 298
-74 74 -65 73 -759 73 -653 0 -670 -1 -732 -50 -15 -12 -134 -166 -263 -343
-130 -176 -241 -322 -247 -324 -7 -3 -164 146 -350 330 -217 214 -354 342
-382 356 -56 29 -133 35 -194 15z"/>
</g>
</svg>
