<svg width="24" height="24" viewBox="0 0 25 15" xmlns="http://www.w3.org/2000/svg">
<path d="M7.5774 14.4445C11.3691 14.4445 14.4429 11.3687 14.4429 7.57443C14.4429 3.78019 11.3691 0.704346 7.5774 0.704346C3.7857 0.704346 0.711914 3.78019 0.711914 7.57443C0.711914 11.3687 3.7857 14.4445 7.5774 14.4445Z" />
<path d="M18.4666 14.1124C20.3588 14.1124 21.8927 11.1853 21.8927 7.57449C21.8927 3.96373 20.3588 1.03662 18.4666 1.03662C16.5744 1.03662 15.0405 3.96373 15.0405 7.57449C15.0405 11.1853 16.5744 14.1124 18.4666 14.1124Z" />
<path d="M23.6988 13.3283C24.4102 13.3283 24.9868 10.7522 24.9868 7.57442C24.9868 4.39665 24.4102 1.82056 23.6988 1.82056C22.9874 1.82056 22.4106 4.39665 22.4106 7.57442C22.4106 10.7522 22.9874 13.3283 23.6988 13.3283Z" />
</svg>
