<svg viewBox="0 0 32 26" fill="none" xmlns="http://www.w3.org/2000/svg">
<path d="M29.4875 4.62788C27.7635 2.9212 25.4125 1.91249 22.9246 1.8121C20.4164 1.73619 17.9775 2.60098 16.1353 4.21948C16.0693 4.24077 15.9976 4.24077 15.9316 4.21948C15.8655 4.24077 15.794 4.24077 15.7279 4.21948C14.1877 2.88387 12.2357 2.05487 10.1607 1.85513C8.75215 1.75743 7.33821 1.95555 6.01933 2.43546C4.68362 2.9091 3.46598 3.64104 2.44362 4.58492C2.18947 4.82341 1.98923 5.10862 1.8552 5.42317C1.72033 5.75206 1.65127 6.10198 1.65153 6.45493V20.5983C1.6374 21.0497 1.75493 21.496 1.99105 21.888C2.19083 22.2862 2.51471 22.6164 2.91885 22.8338C3.29601 23.0653 3.73723 23.185 4.18624 23.1777C4.64413 23.1753 5.09169 23.0486 5.47615 22.8123C6.44949 22.2381 7.54925 21.885 8.68976 21.7806C10.7499 21.6411 12.7842 22.2826 14.3475 23.5646C14.774 23.933 15.3325 24.1329 15.909 24.1234C16.5125 24.1317 17.0989 23.9333 17.561 23.5646C18.7779 22.5206 20.3184 21.8796 21.9514 21.7376C23.545 21.5949 25.1421 21.9741 26.4776 22.8123C26.8729 23.0406 27.3275 23.1596 27.7902 23.1562C28.2469 23.1678 28.6966 23.048 29.0802 22.8123C29.46 22.5735 29.7712 22.2484 29.9854 21.8665C30.1967 21.4749 30.298 21.038 30.2796 20.5983V6.4979C30.2797 6.15193 30.2105 5.8091 30.0759 5.48765C29.9368 5.16927 29.7374 4.87785 29.4875 4.62788Z" stroke="currentColor" stroke-width="1.5" stroke-miterlimit="10"/>
<path d="M16 4.21948V24.1879" stroke="currentColor" stroke-width="1.5" stroke-miterlimit="10"/>
</svg>
