<svg viewBox="0 0 24 24" fill="currentColor" xmlns="http://www.w3.org/2000/svg">
<path d="M23.9718 10.2185H22.5336C21.8567 8.35957 20.0517 7 17.9366 7C15.9625 7 14.2421 8.16531 13.4806 9.85778C13.0577 9.55257 12.55 9.35846 11.9859 9.35846C11.4219 9.35846 10.9142 9.55277 10.4912 9.85778C9.7297 8.19295 8.03767 7 6.03526 7C3.9201 7 2.08706 8.35957 1.43826 10.2185H0V11.6058H1.18449V11.8001C1.18449 14.4359 3.35611 16.6 6.06342 16.6C8.77093 16.6 10.9142 14.4359 10.9142 11.8001C10.9142 11.2173 11.3936 10.7457 11.9859 10.7457C12.5782 10.7457 13.0577 11.2174 13.0577 11.8001C13.0577 14.4359 15.2293 16.6 17.9366 16.6C20.6441 16.6 22.8155 14.4359 22.8155 11.8001V11.6058H24V10.2185H23.9718Z" fill="currentColor"/>
</svg>
