<svg viewBox="0 0 21 20" fill="none" xmlns="http://www.w3.org/2000/svg">
<path d="M9.80051 17.1133C10.232 16.8563 10.7696 16.8563 11.201 17.1133L15.3933 19.6103C16.4316 20.2287 17.7033 19.2959 17.4252 18.1198L16.3256 13.4682C16.2077 12.9694 16.3785 12.4464 16.7681 12.1133L20.4207 8.99068C21.344 8.2014 20.8578 6.69004 19.6475 6.58705L14.8042 6.1749C14.3012 6.1321 13.8626 5.81585 13.6631 5.35211L11.7578 0.922522C11.2831 -0.181102 9.71841 -0.181104 9.2437 0.92252L7.3384 5.35211C7.13893 5.81585 6.70035 6.1321 6.19736 6.1749L1.34985 6.58741C0.140188 6.69034 -0.346346 8.2005 0.575726 8.99023L4.22312 12.1141C4.61162 12.4468 4.78211 12.9685 4.66511 13.4664L3.57062 18.1248C3.29439 19.3004 4.56545 20.2314 5.60302 19.6134L9.80051 17.1133Z" fill="currentColor"/>
</svg>
