<svg height="24" width="24" viewBox="0 0 16 14" xmlns="http://www.w3.org/2000/svg">
<path d="M0 12.2387V12.0925C0.0891498 12.0376 0.188518 12.0014 0.292109 11.9862C1.37971 11.9704 2.44689 11.6875 3.39962 11.1623C3.71832 10.9896 4.03699 10.7769 4.3557 10.5643C4.04658 10.5162 3.74068 10.4497 3.43949 10.365C2.65681 10.1185 1.9881 9.6 1.55392 8.90327C1.50121 8.8413 1.46775 8.76518 1.45828 8.68436C1.4488 8.60355 1.46349 8.52173 1.50042 8.44924C1.53735 8.37675 1.59484 8.31677 1.66577 8.27697C1.73669 8.23717 1.8178 8.21935 1.89887 8.22563C2.14352 8.21149 2.38736 8.18488 2.6293 8.1459V8.1459H2.53658C2.06452 8.02587 1.62285 7.80756 1.24073 7.50533C0.85862 7.2031 0.544425 6.82372 0.318694 6.39183C0.200032 6.15561 0.0980018 5.91133 0.0132924 5.6609V5.44833C0.0796896 5.27558 0.172672 5.10279 0.371863 5.07621C0.503339 5.04973 0.638836 5.04973 0.770312 5.07621L1.46087 5.20915L1.31465 5.08952L1.15547 4.95666C0.578296 4.42475 0.210763 3.70341 0.119632 2.92355C0.0500716 2.44392 0.0818284 1.95501 0.212679 1.48838C0.222949 1.42403 0.246833 1.3627 0.283031 1.30853C0.319229 1.25436 0.366611 1.20867 0.422115 1.17458C0.477619 1.1405 0.539985 1.11884 0.604643 1.11108C0.6693 1.10332 0.734913 1.10963 0.796896 1.12961C0.901271 1.17248 0.996019 1.23575 1.07571 1.31567C1.52721 1.70103 1.93888 2.12625 2.40366 2.47175C3.60468 3.35863 5.00422 3.93804 6.48038 4.1594L7.44991 4.26564C7.45612 4.23943 7.45612 4.21213 7.44991 4.18592C7.30664 3.43565 7.41884 2.65902 7.76861 1.98008C8.01827 1.47546 8.39392 1.04391 8.85923 0.727285C9.32454 0.41066 9.86374 0.219679 10.4245 0.172847C10.9116 0.124182 11.4033 0.18612 11.8632 0.354078C12.323 0.522035 12.7391 0.791697 13.0804 1.14291C13.1098 1.15534 13.1413 1.16173 13.1733 1.16173C13.2052 1.16173 13.2367 1.15534 13.2662 1.14291C13.7585 1.04589 14.2363 0.885055 14.6871 0.66451C14.8067 0.66451 14.9262 0.558203 15.0191 0.66451C15.1121 0.770816 15.0191 0.903713 15.0191 1.01002C14.8617 1.25135 14.6886 1.48215 14.5012 1.701C14.3153 1.88704 14.1029 2.0465 13.917 2.20596C14.297 2.14536 14.6737 2.06554 15.0457 1.96678C15.1652 1.96678 15.2847 1.96677 15.3511 2.03321C15.3716 2.05303 15.3878 2.07679 15.3989 2.10304C15.4101 2.12929 15.4158 2.15754 15.4158 2.18605C15.4158 2.21457 15.4101 2.24277 15.3989 2.26902C15.3878 2.29528 15.3716 2.31903 15.3511 2.33886C14.9926 2.68435 14.6339 3.02984 14.2621 3.36204C14.2299 3.38747 14.2036 3.41974 14.1853 3.45649C14.1669 3.49325 14.1569 3.53358 14.1559 3.57466C14.2103 5.11618 13.8914 6.64802 13.2264 8.03957C12.5695 9.49924 11.5555 10.7697 10.2783 11.7337C8.79783 12.8337 7.02133 13.4634 5.17902 13.541C3.62239 13.6388 2.06592 13.3465 0.65068 12.6905C0.423284 12.5556 0.205843 12.4046 0 12.2387V12.2387Z" />
</svg>
