<svg viewBox="0 0 24 24" fill="currentColor" xmlns="http://www.w3.org/2000/svg">
<path d="M6.04216 20.2061L2.95082 19.5316C2.66979 19.4754 2.44496 19.33 2.27635 19.0954C2.10773 18.8616 2.04215 18.6042 2.07963 18.3232L2.38876 15.1475L0.28103 12.7307C0.0936768 12.5246 0 12.281 0 12C0 11.719 0.0936768 11.4754 0.28103 11.2693L2.38876 8.85244L2.07963 5.6768C2.04215 5.39577 2.10773 5.13835 2.27635 4.90453C2.44496 4.66996 2.66979 4.52458 2.95082 4.46837L6.04216 3.7939L7.67213 1.0398C7.82201 0.796238 8.0281 0.636987 8.2904 0.562046C8.55269 0.487104 8.81499 0.496472 9.07728 0.590149L12 1.82668L14.9227 0.590149C15.185 0.496472 15.4473 0.487104 15.7096 0.562046C15.9719 0.636987 16.178 0.796238 16.3279 1.0398L17.9578 3.7939L21.0492 4.46837C21.3302 4.52458 21.555 4.66996 21.7237 4.90453C21.8923 5.13835 21.9578 5.39577 21.9204 5.6768L21.6112 8.85244L23.719 11.2693C23.9063 11.4754 24 11.719 24 12C24 12.281 23.9063 12.5246 23.719 12.7307L21.6112 15.1475L21.9204 18.3232C21.9578 18.6042 21.8923 18.8616 21.7237 19.0954C21.555 19.33 21.3302 19.4754 21.0492 19.5316L17.9578 20.2061L16.3279 22.9602C16.178 23.2037 15.9719 23.363 15.7096 23.4379C15.4473 23.5129 15.185 23.5035 14.9227 23.4098L12 22.1733L9.07728 23.4098C8.81499 23.5035 8.55269 23.5129 8.2904 23.4379C8.0281 23.363 7.82201 23.2037 7.67213 22.9602L6.04216 20.2061ZM10.0328 15.2037C10.2389 15.4098 10.5012 15.5129 10.8197 15.5129C11.1382 15.5129 11.4005 15.4098 11.6066 15.2037L16.3841 10.4262C16.6089 10.2014 16.7213 9.93422 16.7213 9.62472C16.7213 9.31596 16.6089 9.04917 16.3841 8.82434C16.1593 8.59952 15.8925 8.4871 15.5837 8.4871C15.2742 8.4871 15.007 8.59952 14.7822 8.82434L10.8197 12.7869L9.1897 11.185C8.96487 10.9789 8.69808 10.8804 8.38932 10.8894C8.07981 10.8991 7.82202 11.007 7.61593 11.2131C7.40984 11.4192 7.30679 11.6815 7.30679 12C7.30679 12.3185 7.40984 12.5808 7.61593 12.7869L10.0328 15.2037Z" fill="#FCEB54"/>
<path d="M10.0328 15.2037C10.2389 15.4098 10.5012 15.5129 10.8197 15.5129C11.1382 15.5129 11.4005 15.4098 11.6066 15.2037L16.3841 10.4262C16.6089 10.2014 16.7213 9.93422 16.7213 9.62472C16.7213 9.31596 16.6089 9.04917 16.3841 8.82434C16.1593 8.59952 15.8925 8.4871 15.5837 8.4871C15.2742 8.4871 15.007 8.59952 14.7822 8.82434L10.8197 12.7869L9.1897 11.185C8.96487 10.9789 8.69808 10.8804 8.38932 10.8894C8.07981 10.8991 7.82202 11.007 7.61593 11.2131C7.40984 11.4192 7.30679 11.6815 7.30679 12C7.30679 12.3185 7.40984 12.5808 7.61593 12.7869L10.0328 15.2037Z" fill="#15171C"/>
</svg>
