<svg width="24" height="24" viewBox="0 0 24 24" fill="none" xmlns="http://www.w3.org/2000/svg">
	<path fill-rule="evenodd" clip-rule="evenodd"
		d="M17.7699 8.38174H22.001C22.001 4.98453 19.9654 2.99994 16.5165 2.99994H7.48542C4.03653 2.99994 2.00098 4.98453 2.00098 8.33841V15.6615C2.00098 19.0153 4.03653 20.9999 7.48542 20.9999H16.5165C19.9654 20.9999 22.001 19.0153 22.001 15.6615V15.3495H17.7699C15.8062 15.3495 14.2143 13.7975 14.2143 11.8829C14.2143 9.96843 15.8062 8.41641 17.7699 8.41641V8.38174ZM17.7688 9.87233H21.2533C21.6656 9.87233 21.9999 10.1983 21.9999 10.6003V13.1309C21.9951 13.531 21.6636 13.8542 21.2533 13.8589H17.8488C16.8547 13.8719 15.9854 13.2083 15.7599 12.2642C15.647 11.6782 15.8055 11.0735 16.193 10.6121C16.5805 10.1508 17.1573 9.88 17.7688 9.87233ZM17.92 12.5329H18.2489C18.6711 12.5329 19.0134 12.1992 19.0134 11.7876C19.0134 11.3759 18.6711 11.0423 18.2489 11.0423H17.92C17.7181 11.0399 17.5236 11.1165 17.38 11.2549C17.2364 11.3933 17.1556 11.582 17.1556 11.7789C17.1556 12.1919 17.4964 12.5281 17.92 12.5329ZM6.73881 8.38173H12.3833C12.8054 8.38173 13.1477 8.04805 13.1477 7.63643C13.1477 7.22481 12.8054 6.89112 12.3833 6.89112H6.73881C6.32007 6.89109 5.97923 7.21953 5.97437 7.62776C5.97434 8.04081 6.31519 8.37699 6.73881 8.38173Z"
		fill="#15171C" />
</svg>
